<?xml version="1.0" encoding="UTF-8" standalone="no"?>
<!-- Created with Inkscape (http://www.inkscape.org/) -->

<svg
   xmlns:dc="http://purl.org/dc/elements/1.1/"
   xmlns:cc="http://creativecommons.org/ns#"
   xmlns:rdf="http://www.w3.org/1999/02/22-rdf-syntax-ns#"
   xmlns:svg="http://www.w3.org/2000/svg"
   xmlns="http://www.w3.org/2000/svg"
   xmlns:sodipodi="http://sodipodi.sourceforge.net/DTD/sodipodi-0.dtd"
   xmlns:inkscape="http://www.inkscape.org/namespaces/inkscape"
   width="163.51321mm"
   height="70.1987mm"
   viewBox="0 0 163.51321 70.1987"
   version="1.1"
   id="svg4660"
   inkscape:version="0.92.3 (2405546, 2018-03-11)"
   sodipodi:docname="the-end.svg">
  <defs
     id="defs4654" />
  <sodipodi:namedview
     id="base"
     pagecolor="#ffffff"
     bordercolor="#666666"
     borderopacity="1.0"
     inkscape:pageopacity="0.0"
     inkscape:pageshadow="2"
     inkscape:zoom="1.4"
     inkscape:cx="395.74774"
     inkscape:cy="332.45292"
     inkscape:document-units="mm"
     inkscape:current-layer="layer1"
     showgrid="false"
     fit-margin-top="0"
     fit-margin-left="0"
     fit-margin-right="0"
     fit-margin-bottom="0"
     inkscape:window-width="2384"
     inkscape:window-height="1828"
     inkscape:window-x="3916"
     inkscape:window-y="76"
     inkscape:window-maximized="0" />
  <metadata
     id="metadata4657">
    <rdf:RDF>
      <cc:Work
         rdf:about="">
        <dc:format>image/svg+xml</dc:format>
        <dc:type
           rdf:resource="http://purl.org/dc/dcmitype/StillImage" />
        <dc:title></dc:title>
      </cc:Work>
    </rdf:RDF>
  </metadata>
  <g
     inkscape:label="Layer 1"
     inkscape:groupmode="layer"
     id="layer1"
     transform="translate(-16.362588,-115.6763)">
    <path
       style="fill:none;stroke:#000000;stroke-width:0.26458332px;stroke-linecap:butt;stroke-linejoin:miter;stroke-opacity:1"
       d="m 16.441964,120.10714 c 0.251984,0.18899 0.474226,0.4261 0.755952,0.56696 0.112691,0.0564 0.251985,0 0.377977,0 0.377976,0 0.755952,0 1.133928,0 1.700893,0 3.401786,0 5.102679,0 0.881944,0 1.763889,0 2.645833,0 1.007935,0 2.017837,-0.0629 3.023809,0 1.013804,0.0634 2.012463,0.28317 3.023809,0.37798 1.005496,0.0943 2.018919,0.0885 3.023809,0.18899 0.886479,0.0887 1.760006,0.28307 2.645834,0.37798 0.87916,0.0942 1.766675,0.0948 2.645833,0.18898 2.375977,0.25457 2.507348,0.47056 4.724704,0.56697 0.755237,0.0328 1.511903,0 2.267858,0 0.377975,0 0.763291,-0.0741 1.133927,0 0.276257,0.0553 0.503968,0.25198 0.755952,0.37798 0.440973,0.063 0.879297,0.14865 1.322916,0.18898 0.25095,0.0228 0.503968,0 0.755955,0 0.377975,0 0.755951,0 1.133927,0 1.259919,0 2.519841,0 3.779761,0 3.905755,0 7.811508,0 11.717263,0 3.653769,0 7.30754,0 10.961309,0 1.322917,0 2.645833,0 3.96875,0 0.755952,0 1.512684,0.0343 2.267857,0 0.63245,-0.0287 1.257753,-0.15387 1.889882,-0.18898 0.880586,-0.0489 1.763887,0 2.645833,0 0.503968,0 1.009052,0.0335 1.511904,0 0.563464,-0.0376 1.663073,-0.24359 2.267857,-0.37798 0.253556,-0.0563 0.518599,-0.0835 0.755952,-0.18899 0.335669,-0.14918 0.603887,-0.43054 0.944941,-0.56696 0.298243,-0.1193 0.633314,-0.11108 0.94494,-0.18899 0.193263,-0.0483 0.380437,-0.11904 0.566965,-0.18899 0.317643,-0.11912 0.627296,-0.25886 0.944941,-0.37798 0.373052,-0.13989 0.767721,-0.22103 1.133928,-0.37797 0.258947,-0.11098 0.488683,-0.28889 0.755951,-0.37798 0.23905,-0.0797 0.50886,0.0494 0.75595,0 1.04602,-0.2092 0.0704,-0.22141 1.32292,-0.37798 0.50008,-0.0625 1.01102,0.0557 1.5119,0 1.89846,-0.21094 -0.0611,-0.19964 2.07887,-0.37797 0.37667,-0.0314 0.75596,0 1.13393,0 1.07094,0 2.14187,0 3.2128,0 0.31498,0 0.63239,0.0391 0.94494,0 0.39535,-0.0494 0.74325,-0.29984 1.13393,-0.37798 0.12354,-0.0247 0.25198,0 0.37798,0 0.18898,0 0.37797,0 0.56696,0 0.75595,0 1.5119,0 2.26786,0 2.51984,0 5.03968,0 7.55952,0 2.01587,0 4.03175,0 6.04762,0 1.00794,0 2.01796,-0.0649 3.02381,0 0.95132,0.0614 1.88735,0.2727 2.83482,0.37798 0.75393,0.0838 1.51624,0.0865 2.26786,0.18899 3.38135,0.46109 0.36688,0.40214 4.15774,0.56696 0.6923,0.0301 1.38591,0 2.07886,0 1.00794,0 2.01588,0 3.02381,0 0.81895,0 1.6379,0 2.45685,0 0.30479,0 0.85042,0.0405 1.13393,0 0.31799,-0.0454 0.63137,-0.11931 0.94494,-0.18899 0.25355,-0.0563 0.4978,-0.1603 0.75595,-0.18899 0.31305,-0.0348 0.62996,0 0.94494,0 0.44097,0 0.88195,0 1.32292,0 0.31498,0 0.63239,0.0391 0.94494,0 1.10598,-0.13824 0.10214,-0.16727 0.94494,-0.37797 0.12223,-0.0306 0.25198,0 0.37797,0 0.126,0 0.25199,0 0.37798,0 0.62996,0 1.25992,0 1.88988,0 1.32543,0 2.65763,-0.0732 3.96875,0.18899 0.39069,0.0781 0.74955,0.27314 1.13393,0.37797 0.3099,0.0845 0.63331,0.11108 0.94494,0.18899 0.60386,0.15097 1.14861,0.47981 1.70089,0.75595 0.40773,0.20387 1.18953,0.54104 1.51191,0.75596 0.39112,0.26075 0.46711,0.58389 0.75595,0.94494 0.40445,0.50556 0.6566,0.43773 1.13393,0.75595 0.0741,0.0494 0.11486,0.13957 0.18899,0.18899 0.0952,0.41637 0.38878,0.0999 0.56696,0.18898 0.0797,0.0399 0.11486,0.13957 0.18899,0.18899 0.23441,0.15628 0.51437,0.23303 0.75595,0.37798 0.38954,0.23372 0.72762,0.5528 1.13393,0.75595 1.00905,0.50453 0.69408,0.23983 1.51191,0.56697 0.13079,0.0523 0.25198,0.12599 0.37797,0.18898 0.12599,0.063 0.26077,0.11085 0.37798,0.18899 0.0741,0.0494 0.11486,0.13957 0.18899,0.18899 0.23441,0.15627 0.53057,0.20894 0.75595,0.37798 0.14254,0.1069 0.25198,0.25198 0.37797,0.37797 0.126,0.12599 0.27107,0.23543 0.37798,0.37798 0.0845,0.11269 0.10447,0.26529 0.18899,0.37797 0.10691,0.14255 0.27107,0.23544 0.37798,0.37798 0.0845,0.11269 0.12599,0.25199 0.18898,0.37798 0.126,0.25198 0.27335,0.49437 0.37798,0.75595 0.074,0.18496 0.12599,0.37798 0.18899,0.56696 0.063,0.18899 0.12599,0.37798 0.18899,0.56697 0.063,0.18899 0.15623,0.37046 0.18898,0.56696 0.0311,0.18642 -0.0234,0.37944 0,0.56697 0.17415,1.39316 0.12085,0.48337 0.37798,1.5119 0.0779,0.31163 0.11931,0.63137 0.18899,0.94494 0.0563,0.25356 0.12599,0.50397 0.18899,0.75596 0.063,0.25198 0.10685,0.50954 0.18898,0.75595 0.0445,0.13363 0.15483,0.24132 0.18899,0.37797 0.0611,0.24446 -0.11269,0.53057 0,0.75595 0.37653,0.75306 0.37818,8e-4 0.56697,0.75596 0.0306,0.12223 0,0.25198 0,0.37797 0,0.126 0,0.25199 0,0.37798 0,0.56697 0,1.13393 0,1.70089 0,0.56697 0,1.13393 0,1.7009 0,0.31498 0.0348,0.63188 0,0.94494 -0.0287,0.25815 -0.16031,0.4978 -0.18899,0.75595 -0.0348,0.31305 0.0285,0.63125 0,0.94494 0.2363,0.64915 -0.30594,1.12458 -0.37798,1.70089 -0.0391,0.31255 0.0391,0.63239 0,0.94494 -0.0568,0.45417 -0.36543,0.91986 -0.56696,1.32292 -0.063,0.12599 -0.15483,0.24132 -0.18899,0.37797 -0.0306,0.12224 0.0247,0.25444 0,0.37798 -0.0391,0.19534 -0.13426,0.37542 -0.18899,0.56697 -0.0713,0.24974 -0.10685,0.50954 -0.18899,0.75595 -0.0445,0.13363 -0.12599,0.25198 -0.18898,0.37798 -0.126,0.25198 -0.25199,0.50396 -0.37798,0.75595 -0.063,0.12599 -0.12599,0.25198 -0.18899,0.37797 -0.063,0.12599 -0.10099,0.26798 -0.18899,0.37798 -0.16696,0.2087 -0.43436,0.33491 -0.56696,0.56696 -0.12887,0.22552 -0.10685,0.50955 -0.18899,0.75596 -0.0445,0.13363 -0.12599,0.25198 -0.18899,0.37797 -0.18612,0.37226 -0.41245,0.74766 -0.56696,1.13393 -0.14797,0.36993 -0.23001,0.764 -0.37798,1.13393 -0.15451,0.38627 -0.38084,0.76167 -0.56696,1.13393 -0.063,0.12599 -0.15483,0.24132 -0.18899,0.37797 -0.0306,0.12223 0.0306,0.25575 0,0.37798 -0.0342,0.13666 -0.12599,0.25198 -0.18899,0.37798 -0.063,0.18899 -0.14067,0.3737 -0.18899,0.56696 -0.0404,0.16169 0,0.75605 0,0.94494 0,0.50397 0,1.00794 0,1.51191 0,0.94494 0,1.88988 0,2.83482 0,0.19653 -0.0372,0.98526 0,1.13392 -0.11391,0.34206 0.30615,0.35149 0.37798,0.56697 0.0398,0.11953 0,0.25198 0,0.37798 0,0.37797 0,0.75595 0,1.13392 0,0.94494 0,1.88988 0,2.83483 0,1.13392 0,2.26785 0,3.40178 0,0.50397 0,1.00794 0,1.51191 0,0.12599 0.0306,0.25574 0,0.37797 -0.18878,0.75513 -0.19044,0.003 -0.56696,0.75595 -0.0563,0.1127 0,0.25199 0,0.37798 0,0.37798 0,0.75595 0,1.13393 0,0.12599 0.0306,0.25575 0,0.37798 -0.0683,0.27331 -0.30965,0.48263 -0.37798,0.75595 -0.082,0.32813 0.082,0.8058 0,1.13393 -0.0683,0.27331 -0.30965,0.48263 -0.37798,0.75595 -0.082,0.32813 0.082,0.8058 0,1.13393 -0.0683,0.27331 -0.30965,0.48264 -0.37797,0.75595 -0.0306,0.12223 0,0.25198 0,0.37798 0,0.19653 0.0372,0.98526 0,1.13392 -0.0683,0.27332 -0.30965,0.48264 -0.37798,0.75596 -0.0359,0.14372 0,0.78668 0,0.94494"
       id="path5205"
       inkscape:connector-curvature="0" />
    <path
       style="fill:#000000;stroke:#000000;stroke-width:0.26458332px;stroke-linecap:butt;stroke-linejoin:miter;stroke-opacity:1"
       d="m 175.60857,118.34643 c -0.12054,-0.08 -0.14486,-0.0668 -0.26727,-0.0668 -0.0223,0 -0.0452,-0.005 -0.0668,0 -0.0325,0.008 -0.0799,0.0363 -0.10022,0.0668 -0.0138,0.0207 -0.0185,0.0469 -0.0334,0.0668 -0.0519,0.0692 -0.14548,0.13174 -0.20045,0.20045 -0.0251,0.0313 -0.0462,0.0658 -0.0668,0.10023 -0.0128,0.0213 -0.0158,0.0492 -0.0334,0.0668 -0.008,0.008 -0.0223,0 -0.0334,0 -0.0223,0.0223 -0.0471,0.0422 -0.0668,0.0668 -0.0572,0.0716 -0.0931,0.15286 -0.13364,0.23386 -0.0111,0.0223 -0.0223,0.0446 -0.0334,0.0668 -0.0111,0.0223 -0.0274,0.0427 -0.0334,0.0668 -0.005,0.0216 0.005,0.0452 0,0.0668 -0.006,0.0242 -0.0223,0.0446 -0.0334,0.0668 -0.0223,0.0446 -0.0445,0.0891 -0.0668,0.13364 -0.0111,0.0223 -0.0274,0.0426 -0.0334,0.0668 -0.0108,0.0432 0.0108,0.0904 0,0.13364 -0.0121,0.0483 -0.0547,0.0853 -0.0668,0.13363 -0.0209,0.0838 0.021,0.0498 0,0.13364 -0.0121,0.0483 -0.0571,0.0848 -0.0668,0.13363 -0.003,0.0145 0.003,0.19294 0,0.20046 -0.0887,0.22186 -0.0493,-0.07 -0.10022,0.13363 -0.0145,0.058 0.0145,0.14245 0,0.20045 -0.0392,0.15693 -0.0276,-0.0233 -0.0668,0.13364 -0.005,0.0216 0,0.0445 0,0.0668 0,0.078 0,0.15591 0,0.23387 0,0.11136 0,0.22272 0,0.33408 0,0.0347 -0.007,0.17417 0,0.20045 0.006,0.0242 0.0223,0.0446 0.0334,0.0668 0.0111,0.0223 0.0185,0.0469 0.0334,0.0668 0.0189,0.0252 0.0479,0.0416 0.0668,0.0668 0.0149,0.0199 0.0223,0.0445 0.0334,0.0668 0.0111,0.0223 0.0223,0.0446 0.0334,0.0668 0,0.0111 -0.004,0.0228 0,0.0334 0.0157,0.0473 0.0511,0.0864 0.0668,0.13363 0.004,0.0106 -0.005,0.0234 0,0.0334 0.0101,0.0203 0.1229,0.11933 0.13363,0.13364 0.0149,0.0199 0.0185,0.0469 0.0334,0.0668 0.0189,0.0252 0.0479,0.0416 0.0668,0.0668 0.0149,0.0199 0.0223,0.0446 0.0334,0.0668 0.0223,0.0223 0.0471,0.0422 0.0668,0.0668 0.0251,0.0314 0.0384,0.0718 0.0668,0.10022 0.06,0.06 0.15858,0.096 0.23386,0.13364 0.0223,0.0111 0.0445,0.0223 0.0668,0.0334 0.0223,0.0111 0.0427,0.0274 0.0668,0.0334 0.0216,0.005 0.0457,-0.007 0.0668,0 0.0728,-0.0125 0.0111,0.0557 0.0334,0.0668 0.0199,0.01 0.0445,0 0.0668,0 0.0668,0 0.13364,0 0.20046,0 0.11136,0 0.22272,0 0.33408,0 0.0351,0 0.13389,0.007 0.16704,0 0.0345,-0.007 0.07,-0.0153 0.10023,-0.0334 0.027,-0.0162 0.0416,-0.0479 0.0668,-0.0668 0.0199,-0.0149 0.0445,-0.0223 0.0668,-0.0334 0.0223,-0.0111 0.0427,-0.0274 0.0668,-0.0334 0.0216,-0.005 0.0452,0.005 0.0668,0 0.0242,-0.006 0.0446,-0.0223 0.0668,-0.0334 0.0668,-0.0334 0.13363,-0.0668 0.20045,-0.10022 0.0668,-0.0334 0.13363,-0.0668 0.20045,-0.10023 0.0223,-0.0111 0.0469,-0.0185 0.0668,-0.0334 0.0692,-0.0519 0.13174,-0.14548 0.20045,-0.20045 0.0314,-0.0251 0.0718,-0.0384 0.10023,-0.0668 0.13038,-0.13039 -0.008,-0.0179 0.0334,-0.10023 0.007,-0.0141 0.0247,-0.0203 0.0334,-0.0334 0.0138,-0.0207 0.0223,-0.0446 0.0334,-0.0668 0.0223,-0.0223 0.0479,-0.0416 0.0668,-0.0668 0.0299,-0.0398 0.0316,-0.0984 0.0668,-0.13363 0.0284,-0.0284 0.0718,-0.0384 0.10022,-0.0668 0.0176,-0.0176 0.0223,-0.0446 0.0334,-0.0668 0.0223,-0.0445 0.0483,-0.0874 0.0668,-0.13363 0.0131,-0.0327 0.0203,-0.0675 0.0334,-0.10023 0.0185,-0.0462 0.0547,-0.0853 0.0668,-0.13363 0.008,-0.0324 0,-0.0668 0,-0.10023 0,-0.0668 0,-0.13363 0,-0.20045 0,-0.21159 0,-0.42318 0,-0.63477 0,-0.15591 0,-0.31181 0,-0.46772 0,-0.0668 0,-0.13364 0,-0.20045 0,-0.0223 0.005,-0.0452 0,-0.0668 -0.006,-0.0241 -0.0223,-0.0445 -0.0334,-0.0668 -0.0111,-0.0223 -0.0223,-0.0445 -0.0334,-0.0668 -0.0223,-0.0446 -0.0445,-0.0891 -0.0668,-0.13364 -0.0111,-0.0223 -0.0185,-0.0469 -0.0334,-0.0668 -0.0189,-0.0252 -0.0527,-0.0386 -0.0668,-0.0668 -0.01,-0.0199 0.005,-0.0452 0,-0.0668 -0.006,-0.0242 -0.0223,-0.0446 -0.0334,-0.0668 -0.0111,-0.0223 -0.0185,-0.0469 -0.0334,-0.0668 -0.0378,-0.0504 -0.0958,-0.0832 -0.13364,-0.13364 -0.0149,-0.0199 -0.0196,-0.0461 -0.0334,-0.0668 -0.0175,-0.0262 -0.0527,-0.0386 -0.0668,-0.0668 -0.005,-0.01 0.005,-0.0234 0,-0.0334 -0.007,-0.0141 -0.0223,-0.0223 -0.0334,-0.0334 -0.0111,-0.0111 -0.0185,-0.0284 -0.0334,-0.0334 -0.0211,-0.007 -0.0446,0 -0.0668,0 -0.0223,0 -0.0445,0 -0.0668,0 -0.0891,0 -0.17817,0 -0.26726,0 -0.0223,0 -0.0446,0 -0.0668,0 -0.0223,0 -0.0469,0.01 -0.0668,0 -0.01,-0.005 0,-0.0223 0,-0.0334 -0.0111,-0.0111 -0.0185,-0.0284 -0.0334,-0.0334 -0.0456,-0.0152 -0.15483,0.0152 -0.20045,0 -0.0299,-0.01 -0.0369,-0.0568 -0.0668,-0.0668 -0.0211,-0.007 -0.0445,0 -0.0668,0 -0.0111,0 -0.0234,0.005 -0.0334,0 -0.0141,-0.007 -0.0193,-0.0263 -0.0334,-0.0334 -0.01,-0.005 -0.0228,0.004 -0.0334,0 -0.0236,-0.008 -0.0446,-0.0223 -0.0668,-0.0334 -0.0223,-0.0111 -0.0461,-0.0196 -0.0668,-0.0334 -0.0262,-0.0175 -0.0406,-0.0494 -0.0668,-0.0668 -0.0207,-0.0138 -0.0445,-0.0223 -0.0668,-0.0334 -0.0223,-0.0111 -0.0427,-0.0274 -0.0668,-0.0334 -0.0216,-0.005 -0.0445,0 -0.0668,0"
       id="path5207"
       inkscape:connector-curvature="0" />
    <path
       style="fill:none;stroke:#000000;stroke-width:0.26458332px;stroke-linecap:butt;stroke-linejoin:miter;stroke-opacity:1"
       d="m 174.6398,122.4554 c -3e-5,0.0892 0.0193,0.1805 -8e-5,0.26757 -0.005,0.0243 -0.0461,0.0196 -0.0668,0.0334 -0.0131,0.009 -0.0223,0.0223 -0.0334,0.0334 -0.0111,0.0111 -0.0239,0.0208 -0.0334,0.0334 -0.0695,0.0927 -0.11554,0.19767 -0.16704,0.30067 -0.0111,0.0223 -0.0196,0.0461 -0.0334,0.0668 -0.009,0.0131 -0.0193,0.0263 -0.0334,0.0334 -0.01,0.005 -0.0284,-0.01 -0.0334,0 -0.01,0.0199 0,0.0446 0,0.0668 0,0.0668 0,0.13363 0,0.20045 0,0.0223 0,0.0445 0,0.0668 0,0.0223 0.007,0.0457 0,0.0668 -0.01,0.0299 -0.0527,0.0387 -0.0668,0.0668 -0.005,0.01 0,0.0223 0,0.0334 0,0.0223 0,0.0445 0,0.0668 0,0.0891 0,0.17818 0,0.26727 0,0.32295 0,0.6459 0,0.96885 0,0.078 0,0.15591 0,0.23386 0,0.0223 0,0.0445 0,0.0668 0,0.0223 0.005,0.0452 0,0.0668 -0.006,0.0242 -0.0255,0.0432 -0.0334,0.0668 -0.0364,0.1092 -0.0334,0.16149 -0.0334,0.26727"
       id="path5209"
       inkscape:connector-curvature="0" />
    <path
       style="fill:none;stroke:#000000;stroke-width:0.26458332px;stroke-linecap:butt;stroke-linejoin:miter;stroke-opacity:1"
       d="m 175.20766,122.82286 c -0.0361,-0.14444 -0.0793,-0.13364 0,-0.13364 0.0223,0 0.0668,-0.0223 0.0668,0 0,0.0498 -0.0915,0.0904 -0.0668,0.13364 0.0371,0.0649 0.13966,0.0568 0.20045,0.10023 0.0203,0.0145 0.0223,0.0445 0.0334,0.0668 0.0223,0.0446 0.0446,0.0891 0.0668,0.13364 0.0329,0.0658 0.0729,0.13217 0.10022,0.20045 0.0131,0.0327 0.0203,0.0675 0.0334,0.10023 0.009,0.0231 0.0255,0.0432 0.0334,0.0668 0.0145,0.0436 0.0208,0.0895 0.0334,0.13364 0.01,0.0339 0.0265,0.0657 0.0334,0.10022 0.004,0.0219 -0.008,0.0461 0,0.0668 0.0788,0.19709 0.0607,0.003 0.10022,0.20045 0.004,0.0218 0,0.0446 0,0.0668 0,0.0668 0,0.13364 0,0.20045 0,0.18932 0,0.37864 0,0.56795 0,0.22273 0,0.44545 0,0.66817 0,0.078 0,0.15591 0,0.23387 0,0.0223 0.005,0.0452 0,0.0668 -0.006,0.0242 -0.0223,0.0446 -0.0334,0.0668 -0.0111,0.0223 -0.0223,0.0445 -0.0334,0.0668 -0.0111,0.0223 -0.0223,0.0445 -0.0334,0.0668 -0.0111,0.0223 -0.0158,0.0492 -0.0334,0.0668 -0.008,0.008 -0.008,-0.0255 0,-0.0334 0.008,-0.008 0.0284,-0.01 0.0334,0 0.01,0.0199 0,0.0446 0,0.0668 0,0.0223 0.005,0.0452 0,0.0668 -0.006,0.0242 -0.0223,0.0445 -0.0334,0.0668 -0.0111,0.0223 -0.0223,0.0445 -0.0334,0.0668 -0.0334,0.0668 -0.0668,0.13364 -0.10022,0.20046"
       id="path5211"
       inkscape:connector-curvature="0" />
    <path
       style="fill:none;stroke:#000000;stroke-width:0.26458332px;stroke-linecap:butt;stroke-linejoin:miter;stroke-opacity:1"
       d="m 177.04514,120.48459 c 0.0445,0 0.0897,-0.007 0.13364,0 0.0246,0.004 0.0445,0.0223 0.0668,0.0334 0.0223,0.0111 0.0469,0.0185 0.0668,0.0334 0.0252,0.0189 0.0416,0.0479 0.0668,0.0668 0.0199,0.0149 0.0445,0.0223 0.0668,0.0334 0.0876,0.0438 0.18387,0.0836 0.26727,0.13364 0.027,0.0162 0.0406,0.0493 0.0668,0.0668 0.0207,0.0138 0.0469,0.0185 0.0668,0.0334 0.0252,0.0189 0.0446,0.0446 0.0668,0.0668 0.0892,0.0892 0.0444,0.0444 0.13364,0.13363 0.0223,0.0223 0.0493,0.0406 0.0668,0.0668 0.006,0.009 -0.005,0.0234 0,0.0334 0.007,0.0141 0.0247,0.0203 0.0334,0.0334 0.0276,0.0414 0.0369,0.0938 0.0668,0.13363 0.0189,0.0252 0.0479,0.0416 0.0668,0.0668 0.0149,0.0199 0.0185,0.0469 0.0334,0.0668 0.0378,0.0504 0.0958,0.0832 0.13363,0.13363 0.01,0.0131 0.0966,0.18583 0.10023,0.20046 0.005,0.0216 0,0.0445 0,0.0668 0,0.0668 0,0.13364 0,0.20045 0,0.0223 -0.005,0.0452 0,0.0668 0.0121,0.0483 0.0547,0.0853 0.0668,0.13364 0.005,0.0216 0,0.0445 0,0.0668 0,0.0668 0,0.13364 0,0.20046 0,0.10022 0,0.20045 0,0.30067 0,0.0223 0,0.0446 0,0.0668 0,0.0223 0.005,0.0452 0,0.0668 -0.006,0.0242 -0.0223,0.0445 -0.0334,0.0668 -0.0111,0.0223 -0.0223,0.0445 -0.0334,0.0668"
       id="path5213"
       inkscape:connector-curvature="0" />
    <path
       style="fill:none;stroke:#000000;stroke-width:0.26458332px;stroke-linecap:butt;stroke-linejoin:miter;stroke-opacity:1"
       d="m 174.13859,120.68504 c -0.0564,-0.0226 -0.15584,-0.0863 -0.23386,-0.0668 -0.0242,0.006 -0.0445,0.0223 -0.0668,0.0334 -0.26737,0.13368 0.13373,-0.0669 -0.13363,0.0668 -0.0223,0.0111 -0.0427,0.0274 -0.0668,0.0334 -0.0216,0.005 -0.0452,-0.005 -0.0668,0 -0.15693,0.0392 0.0233,0.0276 -0.13364,0.0668 -0.0216,0.005 -0.0457,-0.007 -0.0668,0 -0.0299,0.01 -0.0369,0.0569 -0.0668,0.0668 -0.0211,0.007 -0.0452,-0.005 -0.0668,0 -0.0483,0.0121 -0.0853,0.0547 -0.13363,0.0668 -0.0216,0.005 -0.0452,-0.005 -0.0668,0 -0.0241,0.006 -0.0445,0.0223 -0.0668,0.0334 -0.0445,0.0223 -0.0891,0.0445 -0.13363,0.0668 -0.0668,0.0334 -0.13364,0.0668 -0.20045,0.10022 -0.0223,0.0111 -0.0445,0.0223 -0.0668,0.0334 -0.0223,0.0111 -0.0469,0.0185 -0.0668,0.0334 -0.0252,0.0189 -0.0445,0.0445 -0.0668,0.0668 -0.0223,0.0223 -0.0445,0.0445 -0.0668,0.0668 -0.0334,0.0334 -0.0668,0.0668 -0.10023,0.10023 -0.0223,0.0223 -0.0479,0.0416 -0.0668,0.0668 -0.0149,0.0199 -0.0196,0.0461 -0.0334,0.0668 -0.0175,0.0262 -0.0494,0.0406 -0.0668,0.0668 -0.0138,0.0207 -0.0185,0.0469 -0.0334,0.0668 -0.0189,0.0252 -0.0527,0.0386 -0.0668,0.0668 -0.01,0.0199 0,0.0445 0,0.0668 0,0.078 0,0.15591 0,0.23386"
       id="path5215"
       inkscape:connector-curvature="0" />
    <path
       style="fill:#000000;stroke:#000000;stroke-width:0.26458332px;stroke-linecap:butt;stroke-linejoin:miter;stroke-opacity:1"
       d="m 177.94718,116.04123 c -0.10238,-0.0316 -0.13557,-0.0687 -0.20045,-0.13363 -0.0111,-0.0111 -0.018,-0.0303 -0.0334,-0.0334 -0.0437,-0.009 -0.0897,0.007 -0.13364,0 -0.0491,-0.008 -0.0853,-0.0547 -0.13363,-0.0668 -0.0129,-0.003 -0.18757,-0.003 -0.20045,0 -0.0242,0.006 -0.0445,0.0223 -0.0668,0.0334 -0.0223,0.0111 -0.0469,0.0185 -0.0668,0.0334 -0.0252,0.0189 -0.0416,0.0479 -0.0668,0.0668 -0.0398,0.0299 -0.0922,0.0392 -0.13363,0.0668 -0.0131,0.009 -0.0223,0.0223 -0.0334,0.0334 -0.0382,0.0382 -0.0466,0.0396 -0.0668,0.10023 -0.004,0.0106 0.008,0.0255 0,0.0334 -0.008,0.008 -0.0234,-0.005 -0.0334,0 -0.0141,0.007 -0.0223,0.0223 -0.0334,0.0334 -0.0111,0.0111 -0.0247,0.0203 -0.0334,0.0334 -0.0138,0.0207 -0.0223,0.0446 -0.0334,0.0668 -0.0223,0.0445 -0.0445,0.0891 -0.0668,0.13364 -0.0111,0.0223 -0.0185,0.0469 -0.0334,0.0668 -0.0189,0.0252 -0.0479,0.0416 -0.0668,0.0668 -0.0149,0.0199 -0.0223,0.0445 -0.0334,0.0668 -0.0111,0.0223 -0.0274,0.0427 -0.0334,0.0668 -0.005,0.0216 0.005,0.0452 0,0.0668 -0.0121,0.0483 -0.0547,0.0853 -0.0668,0.13364 -0.005,0.0216 0.007,0.0457 0,0.0668 -0.01,0.0299 -0.0569,0.0369 -0.0668,0.0668 -0.007,0.0211 0,0.0446 0,0.0668 0,0.0223 0,0.0446 0,0.0668 0,0.0891 0,0.17818 0,0.26727 0,0.078 0,0.1559 0,0.23386 0,0.0223 -0.005,0.0452 0,0.0668 0.006,0.0242 0.0223,0.0446 0.0334,0.0668 0.0111,0.0223 0.0185,0.0469 0.0334,0.0668 0.0561,0.0748 0.14432,0.12562 0.20045,0.20045 0.0163,0.0217 0.0912,0.17349 0.10023,0.20045 0.004,0.0106 -0.004,0.0228 0,0.0334 0.0157,0.0472 0.0445,0.0891 0.0668,0.13364 0.0111,0.0223 0.0158,0.0492 0.0334,0.0668 0.06,0.06 0.15858,0.096 0.23386,0.13364 0.0668,0.0334 0.13364,0.0668 0.20046,0.10022 0.0223,0.0111 0.0427,0.0274 0.0668,0.0334 0.0263,0.007 0.1657,0 0.20045,0 0.1225,0 0.24499,0 0.36749,0 0.0668,0 0.13364,0 0.20046,0 0.0223,0 0.0445,0 0.0668,0 0.0223,0 0.0457,0.007 0.0668,0 0.0149,-0.005 0.0193,-0.0264 0.0334,-0.0334 0.021,-0.0105 0.11263,0.0105 0.13363,0 0.0282,-0.0141 0.0406,-0.0493 0.0668,-0.0668 0.009,-0.006 0.0234,0.005 0.0334,0 0.0141,-0.007 0.0203,-0.0247 0.0334,-0.0334 0.0207,-0.0138 0.0469,-0.0185 0.0668,-0.0334 0.0963,-0.0723 0.0433,-0.0483 0.10022,-0.13363 0.0175,-0.0262 0.0494,-0.0406 0.0668,-0.0668 0.052,-0.078 0.0816,-0.18925 0.13363,-0.26727 0.0512,-0.0768 0.0191,0.0143 0.10023,-0.0668 0.13039,-0.13038 -0.008,-0.0179 0.0334,-0.10023 0.007,-0.0141 0.0247,-0.0203 0.0334,-0.0334 0.0138,-0.0207 0.0158,-0.0492 0.0334,-0.0668 0.0445,-0.0446 0.032,0.0709 0.0668,-0.0334 0.007,-0.0211 -0.005,-0.0452 0,-0.0668 0.006,-0.0242 0.0223,-0.0445 0.0334,-0.0668 0.0376,-0.0751 0.0835,-0.15034 0.10023,-0.23386 0.004,-0.0218 0,-0.0446 0,-0.0668 0,-0.0446 0,-0.0891 0,-0.13364 0,-0.0668 0,-0.13363 0,-0.20045 0,-0.0223 0,-0.0445 0,-0.0668 0,-0.0223 0.005,-0.0452 0,-0.0668 -0.0121,-0.0483 -0.0547,-0.0853 -0.0668,-0.13364 -0.005,-0.0216 0.005,-0.0452 0,-0.0668 -0.005,-0.0217 -0.086,-0.17916 -0.10022,-0.20045 -0.009,-0.0131 -0.0247,-0.0203 -0.0334,-0.0334 -0.0138,-0.0207 -0.0196,-0.0461 -0.0334,-0.0668 -0.009,-0.0131 -0.0223,-0.0223 -0.0334,-0.0334 -0.0111,-0.0111 -0.0203,-0.0247 -0.0334,-0.0334 -0.0617,-0.0411 -0.13877,-0.0591 -0.20045,-0.10023 -0.0262,-0.0175 -0.0406,-0.0493 -0.0668,-0.0668 -0.0207,-0.0138 -0.0445,-0.0223 -0.0668,-0.0334 -0.0223,-0.0111 -0.0427,-0.0274 -0.0668,-0.0334 -0.0216,-0.005 -0.0452,0.005 -0.0668,0 -0.0483,-0.0121 -0.0853,-0.0547 -0.13364,-0.0668 -0.0432,-0.0108 -0.0904,0.0108 -0.13363,0 -0.0242,-0.006 -0.0445,-0.0223 -0.0668,-0.0334"
       id="path5217"
       inkscape:connector-curvature="0" />
  </g>
</svg>
